<svg width="384" height="66" viewBox="0 0 384 66" fill="none" xmlns="http://www.w3.org/2000/svg">
<path opacity="0.9" d="M141.532 14.704C141.532 15.7493 141.175 16.56 140.46 17.136C139.756 17.712 138.807 18 137.612 18H133.404V6.512H137.388C138.551 6.512 139.458 6.77333 140.108 7.296C140.77 7.808 141.1 8.54933 141.1 9.52C141.1 10.064 140.946 10.5547 140.636 10.992C140.327 11.4293 139.895 11.7707 139.34 12.016C140.055 12.2187 140.599 12.5547 140.972 13.024C141.346 13.4827 141.532 14.0427 141.532 14.704ZM137.276 7.92H135.02V11.376H137.276C137.97 11.376 138.498 11.2213 138.86 10.912C139.234 10.6027 139.42 10.1813 139.42 9.648C139.42 9.11467 139.234 8.69333 138.86 8.384C138.498 8.07467 137.97 7.92 137.276 7.92ZM137.5 12.784H135.02V16.592H137.5C138.247 16.592 138.823 16.4213 139.228 16.08C139.644 15.7387 139.852 15.264 139.852 14.656C139.852 14.0693 139.644 13.6107 139.228 13.28C138.823 12.9493 138.247 12.784 137.5 12.784ZM146.921 18.16C146.099 18.16 145.379 17.9787 144.761 17.616C144.153 17.2427 143.678 16.72 143.337 16.048C142.995 15.376 142.825 14.5973 142.825 13.712C142.825 12.8693 143.001 12.1227 143.353 11.472C143.705 10.8213 144.185 10.3093 144.793 9.936C145.401 9.552 146.094 9.36 146.873 9.36C147.513 9.36 148.083 9.48267 148.585 9.728C149.097 9.96267 149.529 10.2987 149.881 10.736C150.243 11.1627 150.505 11.6693 150.665 12.256C150.825 12.832 150.867 13.4667 150.793 14.16H143.769V13.088H149.081C149.049 12.2987 148.83 11.6853 148.425 11.248C148.03 10.8 147.502 10.576 146.841 10.576C146.361 10.576 145.939 10.704 145.577 10.96C145.225 11.2053 144.947 11.5627 144.745 12.032C144.553 12.4907 144.457 13.0507 144.457 13.712C144.457 14.3733 144.553 14.944 144.745 15.424C144.937 15.8933 145.214 16.256 145.577 16.512C145.939 16.768 146.377 16.896 146.889 16.896C147.497 16.896 147.998 16.7413 148.393 16.432C148.798 16.1227 149.065 15.6907 149.193 15.136H150.793C150.59 16.0747 150.142 16.816 149.449 17.36C148.766 17.8933 147.923 18.16 146.921 18.16ZM154.127 18H152.511V9.52H154.015V10.928C154.303 10.4373 154.671 10.0533 155.119 9.776C155.567 9.49867 156.084 9.36 156.671 9.36C157.289 9.36 157.823 9.51467 158.271 9.824C158.729 10.1227 159.055 10.5547 159.247 11.12C159.545 10.576 159.935 10.1493 160.415 9.84C160.895 9.52 161.46 9.36 162.111 9.36C162.985 9.36 163.679 9.63733 164.191 10.192C164.713 10.736 164.975 11.5093 164.975 12.512V18H163.359V13.024C163.359 12.3093 163.204 11.76 162.895 11.376C162.585 10.9813 162.137 10.784 161.551 10.784C161.188 10.784 160.852 10.8853 160.543 11.088C160.244 11.28 160.004 11.552 159.823 11.904C159.641 12.256 159.551 12.6667 159.551 13.136V18H157.935V13.024C157.935 12.3093 157.78 11.76 157.471 11.376C157.172 10.9813 156.724 10.784 156.127 10.784C155.753 10.784 155.412 10.8853 155.103 11.088C154.804 11.28 154.564 11.552 154.383 11.904C154.212 12.256 154.127 12.6667 154.127 13.136V18ZM171.392 14.32H166.416V12.864H171.392V14.32ZM179.723 9.52L176.539 18H174.779L171.595 9.52H173.339L175.691 16.144L178.075 9.52H179.723ZM182.486 18H180.87V9.52H182.486V18ZM182.838 7.552C182.838 7.85067 182.726 8.10667 182.502 8.32C182.289 8.52267 182.011 8.624 181.67 8.624C181.318 8.624 181.03 8.52267 180.806 8.32C180.593 8.10667 180.486 7.85067 180.486 7.552C180.486 7.232 180.593 6.976 180.806 6.784C181.03 6.58133 181.318 6.48 181.67 6.48C182.011 6.48 182.289 6.58133 182.502 6.784C182.726 6.976 182.838 7.232 182.838 7.552ZM186.345 13.216V18H184.729V9.52H186.233V10.928C186.521 10.4587 186.895 10.08 187.353 9.792C187.823 9.504 188.351 9.36 188.937 9.36C189.812 9.36 190.511 9.632 191.033 10.176C191.567 10.72 191.833 11.4987 191.833 12.512V18H190.217V13.056C190.217 12.3307 190.063 11.7707 189.753 11.376C189.444 10.9813 188.985 10.784 188.377 10.784C188.004 10.784 187.663 10.8853 187.353 11.088C187.044 11.28 186.799 11.5573 186.617 11.92C186.436 12.2827 186.345 12.7147 186.345 13.216ZM193.371 13.76C193.371 12.9067 193.526 12.1493 193.835 11.488C194.145 10.816 194.582 10.2933 195.147 9.92C195.713 9.54667 196.374 9.36 197.131 9.36C197.697 9.36 198.214 9.504 198.683 9.792C199.163 10.0693 199.553 10.464 199.851 10.976V6.512H201.467V18H199.963V16.48C199.665 17.0133 199.265 17.4293 198.763 17.728C198.273 18.016 197.729 18.16 197.131 18.16C196.374 18.16 195.713 17.9733 195.147 17.6C194.582 17.216 194.145 16.6933 193.835 16.032C193.526 15.36 193.371 14.6027 193.371 13.76ZM195.051 13.76C195.051 14.7093 195.275 15.44 195.723 15.952C196.171 16.464 196.747 16.72 197.451 16.72C197.921 16.72 198.331 16.6027 198.683 16.368C199.046 16.1227 199.329 15.776 199.531 15.328C199.745 14.88 199.851 14.3467 199.851 13.728C199.851 13.0987 199.745 12.5653 199.531 12.128C199.318 11.6907 199.03 11.36 198.667 11.136C198.305 10.9013 197.899 10.784 197.451 10.784C196.747 10.784 196.171 11.04 195.723 11.552C195.275 12.064 195.051 12.8 195.051 13.76ZM207.266 18.16C206.668 18.16 206.114 18.0533 205.602 17.84C205.1 17.616 204.663 17.3067 204.29 16.912C203.916 16.5067 203.623 16.0373 203.41 15.504C203.207 14.9707 203.106 14.3893 203.106 13.76C203.106 13.1307 203.207 12.5493 203.41 12.016C203.623 11.4827 203.916 11.0187 204.29 10.624C204.663 10.2187 205.1 9.90933 205.602 9.696C206.114 9.472 206.668 9.36 207.266 9.36C207.874 9.36 208.428 9.472 208.93 9.696C209.442 9.90933 209.879 10.2187 210.242 10.624C210.615 11.0187 210.903 11.4827 211.106 12.016C211.319 12.5493 211.426 13.1307 211.426 13.76C211.426 14.3893 211.319 14.9707 211.106 15.504C210.903 16.0373 210.615 16.5067 210.242 16.912C209.879 17.3067 209.442 17.616 208.93 17.84C208.428 18.0533 207.874 18.16 207.266 18.16ZM207.266 16.736C207.735 16.736 208.156 16.6187 208.53 16.384C208.914 16.1387 209.212 15.792 209.426 15.344C209.65 14.896 209.762 14.368 209.762 13.76C209.762 13.1413 209.65 12.6133 209.426 12.176C209.212 11.728 208.914 11.3867 208.53 11.152C208.156 10.9173 207.735 10.8 207.266 10.8C206.807 10.8 206.386 10.9173 206.002 11.152C205.628 11.3867 205.33 11.728 205.106 12.176C204.892 12.6133 204.786 13.1413 204.786 13.76C204.786 14.368 204.892 14.896 205.106 15.344C205.33 15.792 205.628 16.1387 206.002 16.384C206.386 16.6187 206.807 16.736 207.266 16.736ZM216.689 21.088H215.089C214.438 20.0853 213.937 18.9493 213.585 17.68C213.233 16.4107 213.057 15.1147 213.057 13.792C213.057 12.4693 213.233 11.1787 213.585 9.92C213.937 8.65067 214.438 7.51467 215.089 6.512H216.689C216.028 7.51467 215.532 8.65067 215.201 9.92C214.881 11.1787 214.721 12.4693 214.721 13.792C214.721 15.1147 214.881 16.4107 215.201 17.68C215.532 18.9493 216.028 20.0853 216.689 21.088ZM223.162 18V16.688C222.896 17.1573 222.533 17.52 222.074 17.776C221.616 18.032 221.072 18.16 220.442 18.16C219.568 18.16 218.864 17.9307 218.33 17.472C217.797 17.0027 217.53 16.3787 217.53 15.6C217.53 14.768 217.856 14.1387 218.506 13.712C219.168 13.2853 220.128 13.072 221.386 13.072C221.632 13.072 221.872 13.0773 222.106 13.088C222.341 13.0987 222.629 13.1253 222.97 13.168V12.544C222.97 11.9467 222.816 11.4827 222.506 11.152C222.197 10.8107 221.76 10.64 221.194 10.64C220.608 10.64 220.138 10.8107 219.786 11.152C219.445 11.4827 219.264 11.9413 219.242 12.528H217.77C217.792 11.888 217.946 11.3333 218.234 10.864C218.533 10.384 218.933 10.016 219.434 9.76C219.946 9.49333 220.533 9.36 221.194 9.36C222.24 9.36 223.05 9.64267 223.626 10.208C224.213 10.7627 224.506 11.5467 224.506 12.56V18H223.162ZM219.066 15.552C219.066 15.9893 219.221 16.3413 219.53 16.608C219.84 16.8747 220.25 17.008 220.762 17.008C221.445 17.008 221.984 16.816 222.378 16.432C222.773 16.0373 222.97 15.5147 222.97 14.864V14.176C222.661 14.144 222.389 14.1227 222.154 14.112C221.92 14.0907 221.696 14.08 221.482 14.08C220.672 14.08 220.064 14.2027 219.658 14.448C219.264 14.6827 219.066 15.0507 219.066 15.552ZM227.371 21.088H225.771C226.432 20.0853 226.923 18.9493 227.243 17.68C227.574 16.4107 227.739 15.1147 227.739 13.792C227.739 12.4693 227.574 11.1787 227.243 9.92C226.923 8.65067 226.432 7.51467 225.771 6.512H227.371C228.032 7.51467 228.534 8.65067 228.875 9.92C229.227 11.1787 229.403 12.4693 229.403 13.792C229.403 15.1147 229.227 16.4107 228.875 17.68C228.534 18.9493 228.032 20.0853 227.371 21.088ZM240.1 18V16.688C239.833 17.1573 239.47 17.52 239.012 17.776C238.553 18.032 238.009 18.16 237.38 18.16C236.505 18.16 235.801 17.9307 235.268 17.472C234.734 17.0027 234.468 16.3787 234.468 15.6C234.468 14.768 234.793 14.1387 235.444 13.712C236.105 13.2853 237.065 13.072 238.324 13.072C238.569 13.072 238.809 13.0773 239.044 13.088C239.278 13.0987 239.566 13.1253 239.908 13.168V12.544C239.908 11.9467 239.753 11.4827 239.444 11.152C239.134 10.8107 238.697 10.64 238.132 10.64C237.545 10.64 237.076 10.8107 236.724 11.152C236.382 11.4827 236.201 11.9413 236.18 12.528H234.708C234.729 11.888 234.884 11.3333 235.172 10.864C235.47 10.384 235.87 10.016 236.372 9.76C236.884 9.49333 237.47 9.36 238.132 9.36C239.177 9.36 239.988 9.64267 240.564 10.208C241.15 10.7627 241.444 11.5467 241.444 12.56V18H240.1ZM236.004 15.552C236.004 15.9893 236.158 16.3413 236.468 16.608C236.777 16.8747 237.188 17.008 237.7 17.008C238.382 17.008 238.921 16.816 239.316 16.432C239.71 16.0373 239.908 15.5147 239.908 14.864V14.176C239.598 14.144 239.326 14.1227 239.092 14.112C238.857 14.0907 238.633 14.08 238.42 14.08C237.609 14.08 237.001 14.2027 236.596 14.448C236.201 14.6827 236.004 15.0507 236.004 15.552ZM247.156 18.16C246.559 18.16 246.004 18.0533 245.492 17.84C244.991 17.616 244.554 17.3067 244.18 16.912C243.807 16.5067 243.514 16.0373 243.3 15.504C243.098 14.9707 242.996 14.3893 242.996 13.76C242.996 13.1307 243.098 12.5493 243.3 12.016C243.514 11.4827 243.807 11.0187 244.18 10.624C244.554 10.2187 244.991 9.90933 245.492 9.696C246.004 9.472 246.559 9.36 247.156 9.36C247.764 9.36 248.319 9.472 248.82 9.696C249.332 9.90933 249.77 10.2187 250.132 10.624C250.506 11.0187 250.794 11.4827 250.996 12.016C251.21 12.5493 251.316 13.1307 251.316 13.76C251.316 14.3893 251.21 14.9707 250.996 15.504C250.794 16.0373 250.506 16.5067 250.132 16.912C249.77 17.3067 249.332 17.616 248.82 17.84C248.319 18.0533 247.764 18.16 247.156 18.16ZM247.156 16.736C247.626 16.736 248.047 16.6187 248.42 16.384C248.804 16.1387 249.103 15.792 249.316 15.344C249.54 14.896 249.652 14.368 249.652 13.76C249.652 13.1413 249.54 12.6133 249.316 12.176C249.103 11.728 248.804 11.3867 248.42 11.152C248.047 10.9173 247.626 10.8 247.156 10.8C246.698 10.8 246.276 10.9173 245.892 11.152C245.519 11.3867 245.22 11.728 244.996 12.176C244.783 12.6133 244.676 13.1413 244.676 13.76C244.676 14.368 244.783 14.896 244.996 15.344C245.22 15.792 245.519 16.1387 245.892 16.384C246.276 16.6187 246.698 16.736 247.156 16.736Z" fill="#333333"/>
<path d="M118.116 59L114.372 44.696L110.628 59H104.516L98.692 36.024H104.612L107.716 49.72L111.364 36.024H117.476L120.996 49.784L124.132 36.024H130.052L124.196 59H118.116ZM134.756 49.976H144.516L146.084 54.744H133.156L134.756 49.976ZM145.06 59L139.684 42.68L134.148 59H128.036L136.548 36.024H143.172L151.588 59H145.06ZM160.069 59H154.021V36.024H160.069V59ZM175.881 59H169.833V41.496H162.793V36.024H182.921V41.496H175.881V59ZM201.902 53.752V59H185.646V36.024H201.678V41.272H191.694V44.568H200.75V49.816H191.694V53.752H201.902ZM211.413 59H205.365V36.024H214.773C217.888 36.024 220.288 36.696 221.973 38.04C223.68 39.3627 224.533 41.2507 224.533 43.704C224.533 45.176 224.106 46.4987 223.253 47.672C222.421 48.824 221.226 49.7307 219.669 50.392L225.301 59H218.101L213.397 51.352H211.413V59ZM211.413 41.016V46.36H214.517C215.861 46.36 216.853 46.1467 217.493 45.72C218.133 45.2933 218.453 44.6213 218.453 43.704C218.453 42.7867 218.133 42.1147 217.493 41.688C216.853 41.24 215.861 41.016 214.517 41.016H211.413ZM231.093 50.84H242.485L242.965 52.152H230.261L231.093 50.84ZM244.917 59L236.629 37.656L228.309 59H226.773L235.829 36.024H237.525L246.517 59H244.917ZM257.419 50.2H251.787V59H250.219V36.024H257.419C258.891 36.024 260.193 36.3013 261.323 36.856C262.475 37.4107 263.371 38.2107 264.011 39.256C264.673 40.3013 265.003 41.5813 265.003 43.096C265.003 44.6107 264.673 45.9013 264.011 46.968C263.371 48.0347 262.475 48.8453 261.323 49.4C260.193 49.9333 258.891 50.2 257.419 50.2ZM257.387 37.368H251.787V48.888H257.387C259.222 48.888 260.694 48.3867 261.803 47.384C262.913 46.3813 263.467 44.9627 263.467 43.128C263.467 41.272 262.913 39.8533 261.803 38.872C260.694 37.8693 259.222 37.368 257.387 37.368ZM276.076 50.2H270.444V59H268.876V36.024H276.076C277.548 36.024 278.849 36.3013 279.98 36.856C281.132 37.4107 282.028 38.2107 282.668 39.256C283.329 40.3013 283.66 41.5813 283.66 43.096C283.66 44.6107 283.329 45.9013 282.668 46.968C282.028 48.0347 281.132 48.8453 279.98 49.4C278.849 49.9333 277.548 50.2 276.076 50.2ZM276.044 37.368H270.444V48.888H276.044C277.878 48.888 279.35 48.3867 280.46 47.384C281.569 46.3813 282.124 44.9627 282.124 43.128C282.124 41.272 281.569 39.8533 280.46 38.872C279.35 37.8693 277.878 37.368 276.044 37.368Z" fill="#333333"/>
</svg>
