<svg width="182" height="232" viewBox="0 0 182 232" fill="none" xmlns="http://www.w3.org/2000/svg">
<path opacity="0.4" d="M101.395 140C140.543 140 172.278 138.147 172.278 135.862C172.278 133.576 140.543 131.723 101.395 131.723C62.248 131.723 30.5128 133.576 30.5128 135.862C30.5128 138.147 62.248 140 101.395 140Z" fill="#8A1114"/>
<path d="M80.6997 27.434C77.8519 29.7811 75.0698 33.5648 76.7003 37.6703C78.3308 41.7758 88.7645 42.1889 90.9579 40.4999C93.8095 38.3064 91.2906 28.5381 89.0679 28.4796C88.8997 24.8567 83.0797 25.4709 80.6997 27.434Z" fill="#263238"/>
<path d="M76.7113 66.9717C76.7113 66.9717 77.8555 87.7879 79.1168 99.0587C79.2447 109.642 81.6758 133.551 81.6758 133.551H84.3482C84.7979 121.688 88.0991 110.611 85.9056 100.148C91.0238 79.6025 87.5178 66.9863 87.5178 66.9863L76.7113 66.9717Z" fill="#FFB573"/>
<path d="M79.6213 66.9863C79.6213 66.9863 85.1233 90.0764 86.6295 99.9106C88.2161 110.242 90.5778 130.29 90.4681 133.544H92.7749C92.7749 133.544 96.6501 113.262 93.0637 100.276C96.0213 71.0297 88.7243 67.0083 88.7243 67.0083L79.6213 66.9863Z" fill="#FFB573"/>
<path d="M66.4275 40.2805C66.2556 39.0339 63.9671 38.9279 63.9671 38.9279L62.8704 38.3759C62.6778 38.258 62.447 38.2195 62.2267 38.2686C62.0064 38.3178 61.8138 38.4506 61.6895 38.6391L61.3239 39.2459C61.2175 39.4848 61.1998 39.7538 61.2742 40.0045C61.3487 40.2552 61.5102 40.4711 61.7297 40.6132L62.0624 40.8545C62.6284 41.259 63.298 41.4936 63.9927 41.5308L65.0054 41.5857C65.2277 41.5985 65.4506 41.5712 65.6634 41.5052C65.9154 41.426 66.1303 41.2585 66.2686 41.0335C66.407 40.8085 66.4595 40.5411 66.4165 40.2805H66.4275Z" fill="#FFB573"/>
<path d="M78.4807 47.5738C78.3418 47.7164 78.2686 47.7859 78.1663 47.8773L77.8775 48.1332C77.6874 48.294 77.4899 48.4439 77.2962 48.5938C76.9014 48.8863 76.4992 49.1568 76.0861 49.4127C75.2571 49.9116 74.3862 50.3373 73.4832 50.6849C71.6848 51.3845 69.7755 51.756 67.8459 51.7817H67.6777C67.5896 51.7798 67.5017 51.7725 67.4145 51.7597C67.2428 51.7346 67.0747 51.6892 66.9137 51.6245C66.6426 51.5127 66.3947 51.3516 66.1825 51.1492C65.9078 50.8793 65.6837 50.5623 65.5208 50.2133C65.2928 49.719 65.1223 49.2001 65.0127 48.6669C64.8188 47.7492 64.6966 46.8178 64.6471 45.8812C64.5481 44.0872 64.5847 42.2883 64.7568 40.4998C64.7771 40.2999 64.8702 40.1145 65.0184 39.9788C65.1666 39.8432 65.3595 39.7667 65.5604 39.764C65.7613 39.7613 65.9562 39.8325 66.108 39.9642C66.2597 40.0958 66.3578 40.2786 66.3836 40.4779V40.4998C66.581 42.2034 66.8077 43.9326 67.1147 45.5887C67.2501 46.3908 67.437 47.1833 67.6741 47.9613C67.7685 48.2796 67.8985 48.5862 68.0616 48.8753C68.1274 48.9813 68.1932 49.0325 68.164 48.9959C68.1156 48.9436 68.0554 48.9035 67.9885 48.8789C67.9292 48.852 67.8665 48.8336 67.802 48.8241H67.7033C68.4893 48.7523 69.2688 48.6228 70.0357 48.4366C70.7957 48.2468 71.541 48.0024 72.2658 47.7054C72.9876 47.3965 73.6832 47.0297 74.3459 46.6087C74.6786 46.404 75.0003 46.1883 75.3111 45.958C75.4646 45.8446 75.6109 45.7276 75.7571 45.6106L75.9691 45.4352L76.13 45.2926L76.225 45.2085C76.5438 44.923 76.9616 44.7732 77.3892 44.7912C77.8168 44.8092 78.2205 44.9936 78.5142 45.3049C78.8079 45.6162 78.9683 46.0299 78.9614 46.4579C78.9545 46.8858 78.7806 47.2941 78.477 47.5958L78.4807 47.5738Z" fill="#FFB573"/>
<path d="M80.2793 43.5159C77.3876 43.0333 74.3533 45.0002 72.7813 46.6014C71.9697 49.0435 74.569 52.012 74.569 52.012C74.569 52.012 78.2723 49.7381 79.6067 48.1844C80.941 46.6307 81.9464 43.7937 80.2793 43.5159Z" fill="#E0E0E0"/>
<path d="M89.2361 66.7083C89.2361 66.7083 93.316 69.6037 94.0837 79.2295C94.3908 83.0206 94.9428 98.1447 96.1053 104.652C91.9194 107.642 79.3873 107.233 77.4241 105.486C77.9798 92.3246 72.9494 74.8681 76.5979 66.84C82.6373 66.0978 89.2361 66.7083 89.2361 66.7083Z" fill="#263238"/>
<path opacity="0.2" d="M85.0977 94.3133C85.1525 88.7821 84.3373 81.1707 81.8623 76.6594C82.7068 82.2894 85.0977 94.3133 85.0977 94.3133Z" fill="black"/>
<path d="M74.6823 47.976C74.6823 51.109 72.1854 52.7541 75.0113 55.167C75.1795 57.8723 75.3769 62.7162 76.2068 67.1288C77.0659 68.3243 83.3466 68.2255 89.8722 66.8107C89.0204 63.027 89.3348 56.8633 91.5685 48.433C91.6875 47.9651 91.7085 47.4777 91.6304 47.0014C91.5523 46.525 91.3766 46.0699 91.1144 45.6646C90.8522 45.2592 90.5091 44.9124 90.1066 44.6459C89.7041 44.3793 89.2509 44.1987 88.7754 44.1155C88.238 44.0204 87.6787 43.9327 87.0865 43.8596C85.0456 43.5587 82.9857 43.4047 80.9228 43.3989C80.2574 43.3989 79.5664 43.4428 78.9084 43.4867C77.7652 43.5573 76.6919 44.0609 75.9068 44.8949C75.1217 45.7288 74.6838 46.8306 74.6823 47.976Z" fill="#E0E0E0"/>
<path d="M88.0136 53.4156L80.3548 55.15C80.0634 55.216 79.8807 55.5058 79.9467 55.7972L82.4263 66.747C82.4923 67.0384 82.7821 67.2212 83.0735 67.1552L90.7323 65.4208C91.0237 65.3548 91.2065 65.065 91.1405 64.7736L88.6608 53.8238C88.5948 53.5324 88.305 53.3496 88.0136 53.4156Z" fill="#8A1114"/>
<path d="M81.6795 47.4385C81.6795 47.4385 80.4402 48.9227 79.4166 49.2664L79.2996 49.9975C80.594 49.8322 81.7887 49.2161 82.6739 48.2574L81.6795 47.4385Z" fill="#8A1114"/>
<path d="M78.3125 46.5429C78.3125 46.5429 78.2613 48.4732 78.7951 49.4164L78.3966 50.0452C77.5348 49.0644 77.0456 47.8116 77.0147 46.5063L78.3125 46.5429Z" fill="#8A1114"/>
<path d="M86.8342 36.9062C86.3443 38.8511 85.7704 42.4375 87.0865 43.8523C87.0865 43.8523 82.184 45.1903 78.9888 49.5773C77.5265 44.9673 80.9374 43.3917 80.9374 43.3917C83.1711 43.0261 83.2003 41.3956 82.8932 39.8309L86.8342 36.9062Z" fill="#FFB573"/>
<path opacity="0.2" d="M85.2293 38.1016L82.8969 39.8381C82.9723 40.1992 83.0163 40.5661 83.0285 40.9348C83.8767 40.8763 85.0831 40.0391 85.222 39.1654C85.2861 38.8139 85.2886 38.4539 85.2293 38.1016Z" fill="black"/>
<path d="M89.1081 33.4405C88.1686 36.5918 87.8396 37.9481 85.8618 39.1874C82.8859 41.0483 79.2813 39.1326 79.2594 35.7473C79.2594 32.6984 80.7838 28.0701 84.1728 27.5656C87.5617 27.0611 90.0623 30.2855 89.1081 33.4405Z" fill="#FFB573"/>
<path d="M86.6514 28.8379C85.7631 31.8759 86.5235 35.0528 88.3367 35.4184C90.8556 34.4788 90.7313 31.6821 90.0879 30.4026C89.4445 29.1231 87.1632 27.0868 86.6514 28.8379Z" fill="#263238"/>
<path d="M88.0297 34.2959C86.6295 34.7602 86.3589 35.6997 86.3589 35.6997C86.3589 35.6997 87.3204 35.0197 88.2417 35.1477C88.108 34.8833 88.0355 34.5921 88.0297 34.2959Z" fill="#263238"/>
<path d="M84.531 33.1443C84.4689 33.4039 84.2824 33.5794 84.1106 33.5392C83.9388 33.499 83.8474 33.2467 83.9096 32.9871C83.9717 32.7276 84.1582 32.5484 84.33 32.5923C84.5018 32.6362 84.5786 32.8848 84.531 33.1443Z" fill="#263238"/>
<path d="M81.2883 32.3731C81.2262 32.6326 81.0397 32.8081 80.8679 32.7642C80.6961 32.7204 80.6047 32.4754 80.6669 32.2122C80.729 31.949 80.9154 31.7772 81.0873 31.821C81.2591 31.8649 81.3541 32.1099 81.2883 32.3731Z" fill="#263238"/>
<path d="M81.1677 31.8539L80.5791 31.5139C80.5791 31.5139 80.7875 32.0842 81.1677 31.8539Z" fill="#263238"/>
<path d="M81.9025 32.7971C81.5309 33.3324 81.0853 33.8125 80.5791 34.2229C80.6903 34.3517 80.8277 34.4552 80.9822 34.5264C81.1367 34.5977 81.3046 34.6351 81.4748 34.636L81.9025 32.7971Z" fill="#ED893E"/>
<path d="M89.1264 36.6028C88.9328 36.8301 88.6925 37.013 88.4219 37.1392C88.1512 37.2653 87.8566 37.3318 87.5581 37.3339C86.794 37.312 86.6624 36.4346 87.0828 35.7144C87.4484 35.0637 88.3112 34.2923 88.9765 34.6615C89.6419 35.0308 89.6455 36.0105 89.1264 36.6028Z" fill="#FFB573"/>
<path d="M85.1416 32.0257C85.1022 32.0062 85.072 31.9721 85.0575 31.9307C84.9988 31.7395 84.8972 31.5643 84.7603 31.4186C84.6234 31.2728 84.4549 31.1603 84.2678 31.0898C84.2274 31.0787 84.1929 31.0522 84.1718 31.016C84.1506 30.9798 84.1444 30.9368 84.1545 30.8961C84.1591 30.876 84.1678 30.8571 84.1801 30.8405C84.1923 30.824 84.2078 30.8101 84.2257 30.7998C84.2435 30.7896 84.2633 30.783 84.2837 30.7807C84.3042 30.7784 84.3249 30.7804 84.3446 30.7864C84.5838 30.8697 84.8001 31.008 84.976 31.1903C85.1519 31.3725 85.2825 31.5936 85.3573 31.8356C85.3646 31.855 85.3679 31.8757 85.3669 31.8964C85.3658 31.9172 85.3605 31.9374 85.3512 31.956C85.342 31.9746 85.3289 31.991 85.313 32.0042C85.297 32.0175 85.2785 32.0273 85.2585 32.033C85.22 32.0454 85.1782 32.0428 85.1416 32.0257Z" fill="#263238"/>
<path d="M80.1112 30.8156C80.0697 30.817 80.0292 30.8027 79.9978 30.7754C79.969 30.7455 79.9529 30.7055 79.9529 30.6639C79.9529 30.6224 79.969 30.5824 79.9978 30.5524C80.1608 30.364 80.3669 30.2177 80.5986 30.126C80.8303 30.0344 81.0807 30 81.3285 30.026C81.3703 30.0332 81.4076 30.0562 81.4328 30.0902C81.458 30.1243 81.4691 30.1668 81.4638 30.2088C81.4575 30.25 81.4351 30.287 81.4015 30.3117C81.3679 30.3364 81.3259 30.3467 81.2847 30.3404C81.0885 30.3208 80.8906 30.3492 80.7078 30.4231C80.525 30.497 80.3629 30.6141 80.2355 30.7645C80.2197 30.7815 80.2004 30.7948 80.1789 30.8037C80.1575 30.8125 80.1343 30.8166 80.1112 30.8156Z" fill="#263238"/>
<path d="M84.4031 32.6288L83.8145 32.2852C83.8145 32.2852 84.0229 32.8591 84.4031 32.6288Z" fill="#263238"/>
<path d="M84.213 58.5852L81.2883 58.0186L81.6174 61.3782C81.6174 61.3782 83.8109 61.2832 85.0611 60.2815L85.1781 59.8428C85.0429 59.1153 84.8783 58.8484 84.213 58.5852Z" fill="#FFB573"/>
<path d="M79.5299 59.4516L79.8699 60.8737C79.9196 61.078 80.044 61.2562 80.2186 61.3733C80.3932 61.4903 80.6053 61.5378 80.8131 61.5062L81.632 61.3782L81.303 58.0186L80.0563 58.4719C79.8638 58.5424 79.7039 58.6811 79.6069 58.8617C79.5099 59.0423 79.4825 59.2522 79.5299 59.4516Z" fill="#FFB573"/>
<path d="M90.7532 46.5722C91.6419 48.2741 92.4174 50.0327 93.0747 51.8366C93.4037 52.7395 93.7144 53.6645 93.963 54.6113C94.2341 55.5924 94.4176 56.5956 94.5114 57.6091C94.5333 57.876 94.5443 58.1501 94.548 58.428V58.5267V58.6839C94.5391 58.7916 94.5195 58.8982 94.4895 59.002C94.4358 59.2035 94.352 59.3957 94.2409 59.5723C94.0715 59.835 93.85 60.0602 93.5901 60.234C93.2723 60.4454 92.9214 60.6024 92.5519 60.6982C92.272 60.7756 91.9875 60.8354 91.7001 60.8774C90.7036 61.0027 89.6981 61.0407 88.695 60.9907C86.7933 60.903 84.9006 60.6757 83.0322 60.3107C82.8298 60.2772 82.6474 60.1686 82.5216 60.0066C82.3957 59.8447 82.3355 59.6412 82.353 59.4368C82.3706 59.2324 82.4645 59.0421 82.6162 58.9039C82.7678 58.7657 82.9659 58.6898 83.1711 58.6912C84.999 58.6583 86.8488 58.6108 88.6292 58.4755C89.4816 58.4164 90.3284 58.2942 91.1627 58.1099C91.333 58.0705 91.5004 58.0192 91.6635 57.9564C91.7444 57.934 91.8192 57.8941 91.8829 57.8394C91.8127 57.8809 91.7547 57.9402 91.7147 58.0112C91.6661 58.0882 91.6292 58.172 91.605 58.2598C91.5921 58.3091 91.5823 58.3592 91.5758 58.4097C91.5739 58.434 91.5739 58.4585 91.5758 58.4828C91.5758 58.2964 91.5429 58.1172 91.5136 57.9125C91.1939 56.2182 90.6952 54.5625 90.0257 52.9735C89.364 51.3247 88.6073 49.6467 87.8322 48.0638V48.0345C87.6751 47.652 87.6678 47.2242 87.8119 46.8366C87.9559 46.4489 88.2407 46.1297 88.6095 45.9425C88.9783 45.7553 89.4041 45.714 89.802 45.8266C90.1999 45.9392 90.5409 46.1976 90.7569 46.5503L90.7532 46.5722Z" fill="#FFB573"/>
<path d="M88.9655 44.2288C91.0603 44.6163 91.9926 46.4991 93.5134 50.2572C93.0491 52.7871 89.3311 54.1178 89.3311 54.1178C89.3311 54.1178 87.1961 50.334 86.7721 48.327C86.348 46.3199 86.8525 43.8376 88.9655 44.2288Z" fill="#E0E0E0"/>
<path d="M84.5384 133.581C84.5212 133.532 84.488 133.49 84.4441 133.463C84.4002 133.436 84.3483 133.424 84.2971 133.431L81.8184 133.394C81.5648 133.377 81.3115 133.432 81.0873 133.551C79.9526 134.26 78.6781 134.715 77.351 134.886C76.8246 134.966 77.0622 135.855 78.3052 135.869C80.3561 135.891 80.729 135.738 82.4801 135.756C83.9754 135.774 83.2625 135.84 84.4506 135.869C84.7358 135.869 84.9697 135.69 84.9332 135.504L84.5384 133.581Z" fill="#263238"/>
<path d="M93.0893 133.58C93.0716 133.532 93.0382 133.491 92.9945 133.464C92.9508 133.437 92.8992 133.425 92.848 133.431L90.8263 133.394C90.5726 133.376 90.319 133.43 90.0952 133.551C89.364 134.059 89.4664 134.648 87.7993 134.886C87.2729 134.966 87.5325 135.854 88.7754 135.869C90.8263 135.891 90.702 135.756 91.5356 135.756C92.3691 135.756 91.8573 135.84 93.0491 135.869C93.3342 135.869 93.5646 135.69 93.5207 135.503L93.0893 133.58Z" fill="#263238"/>
<path d="M80.3305 48.0016C81.3688 48.0454 83.2734 48.8973 83.884 49.8075C84.7467 48.9119 88.1174 46.8317 88.1759 44.0131C87.7633 43.6164 87.2435 43.3495 86.6807 43.2454C86.6807 43.2454 82.184 45.4206 80.3305 48.0016Z" fill="#FAFAFA"/>
<path d="M78.6488 47.8555C78.6488 47.8555 78.3673 45.5779 81.1238 43.3661C80.846 43.1395 79.7565 43.3954 79.7565 43.3954C79.7565 43.3954 76.5358 44.7809 76.6308 48.3673C77.2112 47.9405 77.9352 47.7569 78.6488 47.8555Z" fill="#FAFAFA"/>
<path d="M78.2394 48.8204C77.8409 49.0069 77.6837 50.3047 78.2394 50.6081C78.7951 50.9115 78.7402 49.6722 79.0619 49.2481C79.3837 48.8241 78.9376 48.495 78.2394 48.8204Z" fill="#8A1114"/>
<path d="M78.7293 49.325C78.4441 49.6906 78.8133 50.9336 79.4275 50.9299C80.0417 50.9262 79.5116 49.8332 79.6322 49.2921C79.7529 48.751 79.2155 48.6816 78.7293 49.325Z" fill="#8A1114"/>
<path d="M78.8133 50.2499C78.1297 49.1934 78.0822 54.7612 79.7383 56.9547C79.6286 54.7941 80.7875 51.7305 78.8133 50.2499Z" fill="#8A1114"/>
<path d="M78.7512 50.2023C78.4478 49.1275 76.9233 53.8362 77.7678 56.1357C78.2467 54.2749 80.0344 51.979 78.7512 50.2023Z" fill="#8A1114"/>
<path d="M83.8474 35.6413C84.0067 35.5719 84.1596 35.4887 84.3044 35.3927C84.3126 35.3845 84.3191 35.3748 84.3235 35.3642C84.3279 35.3535 84.3302 35.3421 84.3302 35.3305C84.3302 35.319 84.3279 35.3075 84.3235 35.2969C84.3191 35.2862 84.3126 35.2765 84.3044 35.2684C84.2892 35.2489 84.2672 35.2359 84.2428 35.2318C84.2185 35.2278 84.1935 35.233 84.1728 35.2464C83.8468 35.4651 83.4759 35.6078 83.0874 35.6641C82.6989 35.7204 82.3028 35.6889 81.9281 35.5718C81.9171 35.567 81.9052 35.5644 81.8931 35.5641C81.8811 35.5639 81.8691 35.5661 81.8579 35.5705C81.8467 35.5749 81.8365 35.5815 81.8278 35.5899C81.8191 35.5983 81.8122 35.6083 81.8075 35.6193C81.7992 35.6421 81.8004 35.6672 81.8107 35.6892C81.8209 35.7111 81.8395 35.7281 81.8623 35.7363C82.5131 35.9505 83.2201 35.9166 83.8474 35.6413Z" fill="#263238"/>
<path d="M73.2382 38.2185H54.5607V38.8254H73.2382V38.2185Z" fill="#8A1114"/>
<path d="M72.7922 38.8254H55.0067L55.789 39.2495H72.0099L72.7922 38.8254Z" fill="#8A1114"/>
<path opacity="0.2" d="M72.7922 38.8254H55.0067L55.789 39.2495H72.0099L72.7922 38.8254Z" fill="black"/>
<path d="M60.5453 21.9613C60.436 21.9603 60.3315 21.9165 60.2542 21.8392C60.1769 21.762 60.1331 21.6574 60.1322 21.5482V20.1626C60.1331 20.0534 60.1769 19.9488 60.2542 19.8716C60.3315 19.7943 60.436 19.7505 60.5453 19.7495C60.6545 19.7505 60.759 19.7943 60.8363 19.8716C60.9136 19.9488 60.9574 20.0534 60.9584 20.1626V21.5482C60.9574 21.6574 60.9136 21.762 60.8363 21.8392C60.759 21.9165 60.6545 21.9603 60.5453 21.9613Z" fill="#263238"/>
<path d="M61.2106 20.0785V19.8957C61.2106 19.718 61.0666 19.574 60.8889 19.574H60.2016C60.0239 19.574 59.8799 19.718 59.8799 19.8957V20.0785C59.8799 20.2561 60.0239 20.4002 60.2016 20.4002H60.8889C61.0666 20.4002 61.2106 20.2561 61.2106 20.0785Z" fill="#263238"/>
<path d="M61.207 24.97V21.018C61.207 20.975 61.1901 20.9337 61.1601 20.903C61.13 20.8722 61.0891 20.8545 61.0461 20.8535H60.0444C60.0014 20.8545 59.9605 20.8722 59.9304 20.903C59.9004 20.9337 59.8835 20.975 59.8836 21.018V24.97C59.8837 25.267 59.8209 25.5606 59.6992 25.8316C59.5776 26.1025 59.4 26.3446 59.178 26.542C58.9568 26.7407 58.7797 26.9836 58.6582 27.255C58.5367 27.5264 58.4734 27.8203 58.4724 28.1176V38.2552H62.6144V28.1176C62.6142 27.8201 62.5512 27.5261 62.4296 27.2546C62.308 26.9831 62.1306 26.7403 61.9089 26.542C61.6879 26.344 61.5112 26.1017 61.3902 25.8308C61.2693 25.5599 61.2068 25.2666 61.207 24.97Z" fill="#8A1114"/>
<path d="M62.6144 29.3167H59.8799V35.8715H62.6144V29.3167Z" fill="#E0E0E0"/>
<path d="M66.4969 38.2185H66.0034C66.1677 38.2296 66.3326 38.2296 66.4969 38.2185Z" fill="#8A1114"/>
<path d="M69.4764 38.2185H68.9792C69.1448 38.2295 69.3109 38.2295 69.4764 38.2185Z" fill="#8A1114"/>
<path opacity="0.2" d="M65.8352 30.4866V32.15C65.8352 33.4734 66.5883 34.5738 67.5425 34.709V37.6337C67.5425 38.0834 67.1038 38.2113 66.7638 38.2406H68.7123C68.3724 38.2113 67.9337 38.0834 67.9337 37.6337V34.709C68.8878 34.5774 69.6409 33.477 69.6409 32.15V30.4866H65.8352Z" fill="#8A1114"/>
<path d="M88.4866 28.922C87.0243 29.5435 82.1255 29.7336 80.2062 29.3168C82.1913 26.5128 86.6514 25.6903 88.4866 28.922Z" fill="#263238"/>
<path d="M93.0966 38.9388C93.0825 38.9386 93.0686 38.9352 93.0559 38.9288C93.0433 38.9225 93.0322 38.9134 93.0235 38.9023C92.976 38.8365 91.8975 37.2499 91.8756 33.0018C91.8756 31.2287 91.3309 29.803 90.4132 29.0828C90.1748 28.8858 89.8935 28.7474 89.5919 28.6789C89.2904 28.6103 88.9769 28.6134 88.6767 28.688C88.665 28.6906 88.6528 28.6909 88.6409 28.6888C88.629 28.6868 88.6177 28.6824 88.6075 28.6759C88.5973 28.6695 88.5885 28.6611 88.5816 28.6512C88.5746 28.6414 88.5697 28.6303 88.5671 28.6185C88.5644 28.6067 88.5641 28.5946 88.5662 28.5827C88.5682 28.5708 88.5726 28.5595 88.5791 28.5493C88.5855 28.5391 88.5939 28.5303 88.6038 28.5233C88.6136 28.5164 88.6248 28.5115 88.6365 28.5088C88.9627 28.4312 89.3024 28.4294 89.6294 28.5035C89.9564 28.5777 90.2621 28.7258 90.5229 28.9365C91.4917 29.6933 92.051 31.1739 92.062 32.9982C92.0839 37.1804 93.1588 38.7816 93.1588 38.7963C93.1658 38.8061 93.1708 38.8172 93.1735 38.829C93.1762 38.8407 93.1765 38.8529 93.1745 38.8648C93.1724 38.8767 93.168 38.8881 93.1616 38.8983C93.1551 38.9085 93.1467 38.9173 93.1368 38.9242C93.1246 38.9319 93.1109 38.9369 93.0966 38.9388Z" fill="#263238"/>
<path d="M119.404 17.417C120.424 18.8135 120.42 20.9887 120.073 22.1695C118.245 21.3397 118.53 18.9561 118.53 18.9561L119.404 17.417Z" fill="#263238"/>
<path d="M124.869 34.7015L125.922 35.8604L127.019 37.0376C127.75 37.8163 128.481 38.5767 129.234 39.3079C129.6 39.6735 129.965 40.039 130.357 40.3607C130.748 40.6825 131.088 41.0261 131.472 41.3222C131.856 41.6183 132.203 41.8816 132.543 42.1082C132.799 42.2799 133.068 42.4315 133.347 42.5615L132.788 42.4738C132.622 42.4538 132.454 42.4912 132.313 42.5798C132.313 42.5798 132.4 42.5798 132.525 42.5067C132.864 42.2988 133.179 42.0535 133.464 41.7755C134.213 41.0643 134.913 40.3033 135.559 39.498C136.257 38.6608 136.937 37.7688 137.613 36.8658C138.29 35.9628 138.966 35.0379 139.631 34.1276L139.664 34.0874C139.897 33.7799 140.231 33.5639 140.607 33.477C140.983 33.39 141.377 33.4377 141.722 33.6116C142.066 33.7856 142.338 34.0748 142.492 34.4289C142.645 34.783 142.669 35.1796 142.56 35.5497C142.19 36.7051 141.761 37.8411 141.277 38.9533C140.798 40.05 140.268 41.1467 139.668 42.2435C139.046 43.3842 138.327 44.4691 137.518 45.4862C137.036 46.0875 136.492 46.6364 135.895 47.124C135.5 47.4439 135.066 47.714 134.605 47.9283C133.927 48.2442 133.184 48.3969 132.437 48.3743C132.299 48.3691 132.162 48.3507 132.027 48.3194L131.874 48.2865C131.073 48.0946 130.298 47.8061 129.567 47.4274C128.954 47.1154 128.362 46.7649 127.794 46.3782C126.752 45.6766 125.757 44.906 124.818 44.0714C123.897 43.2708 123.041 42.4336 122.211 41.5818C121.802 41.1504 121.393 40.719 121.001 40.273C120.61 39.827 120.234 39.392 119.821 38.8838C119.36 38.2142 119.163 37.3976 119.268 36.5915C119.373 35.7853 119.773 35.0467 120.391 34.5181C121.009 33.9895 121.8 33.7082 122.613 33.7286C123.426 33.749 124.202 34.0695 124.793 34.6284L124.869 34.7015Z" fill="#E0E0E0"/>
<path d="M141.269 36.1018L144.527 36.259L143.47 31.8721C143.47 31.8721 140.439 32.0951 139.953 33.6525C139.902 33.8261 139.913 34.0119 139.982 34.1789L140.582 35.6156C140.639 35.7535 140.733 35.8724 140.855 35.9585C140.977 36.0446 141.12 36.0943 141.269 36.1018Z" fill="#FF8B7B"/>
<path d="M147.433 33.6561L146.804 32.1937C146.682 31.9103 146.463 31.6792 146.187 31.5414C145.91 31.4036 145.594 31.3679 145.294 31.4406L143.466 31.8903L144.523 36.2773L146.716 35.3926C146.879 35.3282 147.028 35.2316 147.153 35.1085C147.278 34.9855 147.377 34.8386 147.443 34.6765C147.51 34.5144 147.544 34.3405 147.542 34.1652C147.54 33.9899 147.503 33.8167 147.433 33.6561Z" fill="#FF8B7B"/>
<path d="M117.166 96.8542C113.708 81.6423 111.569 63.3011 111.569 63.3011L125.75 63.0745C125.75 63.0745 125.553 87.7914 125.582 98.1447C125.619 108.911 126.364 132.604 126.364 132.604H122.062C122.062 132.604 116.508 110.161 117.166 96.8542Z" fill="#263238"/>
<path d="M116.062 75.866L113.818 79.1928C114.487 83.3458 115.28 87.9192 116.205 92.4012C116.593 85.5136 116.527 77.5111 116.062 75.866Z" fill="black"/>
<path d="M132.104 134.714C132.104 134.714 126.178 133.317 125.732 132.377H122.442L122.464 135.861H124.496L124.807 135.54L125.323 135.861C126.968 135.861 131.34 135.796 132.375 135.426C132.395 135.294 132.381 135.159 132.334 135.034C132.286 134.909 132.207 134.799 132.104 134.714Z" fill="#263238"/>
<path d="M103.976 96.4264C105.618 81.1268 105.567 70.9051 107.566 63.3669L120.479 63.1731C120.479 63.1731 115.101 87.4404 112.604 97.5377C110.107 107.635 105.833 132.597 105.833 132.597H101.849C101.849 132.597 100.595 108.257 103.976 96.4264Z" fill="#263238"/>
<path d="M106.543 66.3462C106.258 68.1741 105.241 78.988 104.188 82.9253C112.798 86.7456 125.959 85.2431 126.364 82.7644C126.244 78.1727 125.999 66.3462 125.999 66.3462H106.543Z" fill="#E0E0E0"/>
<path opacity="0.1" d="M107.022 68.3533C107.623 69.3275 108.349 70.2186 109.182 71.0037C109.182 71.0037 107.325 70.6711 107.022 68.3533Z" fill="black"/>
<path opacity="0.1" d="M124.328 70.9014C124.822 70.1654 125.222 69.3709 125.52 68.5361C125.52 68.5361 125.604 70.4043 124.328 70.9014Z" fill="black"/>
<path opacity="0.1" d="M107.102 69.7314C107.301 70.4637 107.594 71.1667 107.976 71.8226C107.628 71.6111 107.356 71.2948 107.199 70.9191C107.042 70.5434 107.008 70.1276 107.102 69.7314Z" fill="black"/>
<path d="M109.548 134.714C109.548 134.714 105.852 133.317 105.428 132.377H102.137L102.072 135.861H104.766L105.084 135.54L105.592 135.861C107.237 135.861 108.754 135.796 109.8 135.426C109.825 135.296 109.815 135.161 109.77 135.036C109.726 134.911 109.649 134.799 109.548 134.714Z" fill="#263238"/>
<path d="M107.091 32.8444C111.654 32.2777 118.168 32.3326 122.537 33.0857C123.628 33.2836 124.63 33.8196 125.4 34.6181C126.171 35.4165 126.67 36.4368 126.829 37.5348C127.746 44.1335 126.957 55.664 126.372 67.2712C116.391 70.6857 105.863 67.2236 105.863 67.2236C105.497 64.8839 106.316 57.2104 106.864 53.1159C106.042 48.8861 104.305 44.0421 103.143 38.4231C103.002 37.7946 102.994 37.1434 103.121 36.5117C103.247 35.88 103.505 35.2819 103.877 34.756C104.249 34.2302 104.727 33.7883 105.281 33.459C105.835 33.1297 106.451 32.9203 107.091 32.8444Z" fill="#263238"/>
<path opacity="0.1" d="M107.091 32.8444C111.654 32.2777 118.168 32.3326 122.537 33.0857C123.628 33.2836 124.63 33.8196 125.4 34.6181C126.171 35.4165 126.67 36.4368 126.829 37.5348C127.746 44.1335 126.957 55.664 126.372 67.2712C116.391 70.6857 105.863 67.2236 105.863 67.2236C105.497 64.8839 106.316 57.2104 106.864 53.1159C106.042 48.8861 104.305 44.0421 103.143 38.4231C103.002 37.7946 102.994 37.1434 103.121 36.5117C103.247 35.88 103.505 35.2819 103.877 34.756C104.249 34.2302 104.727 33.7883 105.281 33.459C105.835 33.1297 106.451 32.9203 107.091 32.8444Z" fill="white"/>
<path d="M111.606 24.1326L116.797 28.3916C116.125 30.1793 115.913 32.0474 118.844 32.753C119.576 33.7218 118.479 35.4217 117.177 36.0834C114.099 35.3815 112.326 34.5553 111.131 32.9138C111.507 31.627 112.107 26.7757 111.606 24.1326Z" fill="#FF8B7B"/>
<path opacity="0.2" d="M113.77 25.9094L116.797 28.3881C116.633 28.8014 116.511 29.23 116.432 29.6676C115.258 29.7517 113.628 28.5709 113.555 27.496C113.528 26.9584 113.601 26.4205 113.77 25.9094Z" fill="black"/>
<path d="M110.86 21.23C111.335 24.4873 111.445 26.4176 113.24 27.9457C115.942 30.2452 119.861 28.3734 120.373 25.0211C120.83 22.0123 119.978 17.1903 116.662 16.1813C115.926 15.9575 115.146 15.9243 114.394 16.0849C113.642 16.2455 112.943 16.5945 112.363 17.0993C111.783 17.604 111.341 18.2479 111.078 18.9704C110.815 19.693 110.74 20.4705 110.86 21.23Z" fill="#FF8B7B"/>
<path d="M110.831 22.7325C111.166 23.0952 111.598 23.3534 112.076 23.476C112.554 23.5986 113.057 23.5803 113.525 23.4234C112.743 22.6301 113.503 19.7274 112.721 18.5466C114.235 18.8463 120.128 19.7018 120.691 17.6582C121.301 15.4647 118.863 13.7136 117.495 13.5491C117.898 14.463 117.861 15.1247 116.362 14.8286C114.863 14.5325 108.685 13.1067 109.369 16.0021C107.38 16.0021 107.245 18.8975 108.7 20.2831C109.497 21.02 110.211 21.8412 110.831 22.7325Z" fill="#263238"/>
<path d="M109.734 15.8631C108.542 15.567 108.915 14.4703 109.182 14.3569C108.067 14.6275 107.661 15.7242 109.007 16.2287C110.352 16.7332 109.734 15.8631 109.734 15.8631Z" fill="#263238"/>
<path d="M109.943 23.2295C110.053 23.5864 110.234 23.9178 110.474 24.2046C110.713 24.4913 111.008 24.7278 111.339 24.9002C112.235 25.3572 112.886 24.6041 112.801 23.6609C112.732 22.8091 112.187 21.5479 111.208 21.4674C110.992 21.4567 110.777 21.5001 110.583 21.5938C110.388 21.6875 110.221 21.8285 110.095 22.0038C109.969 22.1791 109.889 22.3831 109.863 22.5972C109.836 22.8114 109.863 23.0288 109.943 23.2295Z" fill="#FF8B7B"/>
<path d="M115.434 21.347C115.456 21.6139 115.616 21.8186 115.799 21.804C115.982 21.7894 116.099 21.5554 116.077 21.2922C116.055 21.029 115.894 20.8206 115.711 20.8352C115.529 20.8498 115.412 21.0801 115.434 21.347Z" fill="#263238"/>
<path d="M118.621 21.2701C118.643 21.537 118.804 21.7417 118.987 21.7235C119.17 21.7052 119.283 21.4785 119.261 21.2116C119.239 20.9448 119.078 20.7437 118.896 20.7583C118.713 20.7729 118.6 21.0033 118.621 21.2701Z" fill="#263238"/>
<path d="M117.974 21.6284C118.359 22.4142 118.851 23.1426 119.437 23.7927C119.002 24.2752 118.183 24.1582 118.183 24.1582L117.974 21.6284Z" fill="#FF5652"/>
<path d="M114.94 20.4989C114.915 20.5059 114.888 20.5059 114.863 20.4989C114.844 20.4916 114.826 20.4805 114.811 20.4661C114.796 20.4518 114.784 20.4345 114.775 20.4153C114.767 20.3962 114.763 20.3756 114.763 20.3547C114.763 20.3339 114.767 20.3133 114.776 20.2941C114.863 20.0594 115.005 19.8489 115.19 19.6798C115.375 19.5107 115.598 19.388 115.839 19.3217C115.881 19.3134 115.923 19.3219 115.958 19.3452C115.993 19.3685 116.018 19.4048 116.026 19.446C116.034 19.4872 116.026 19.53 116.002 19.5649C115.979 19.5999 115.943 19.6242 115.902 19.6324C115.71 19.6866 115.535 19.7854 115.389 19.9208C115.243 20.0562 115.132 20.2243 115.064 20.4111C115.053 20.4351 115.035 20.4557 115.014 20.471C114.992 20.4864 114.967 20.4959 114.94 20.4989Z" fill="#263238"/>
<path d="M120.471 20.0747C120.445 20.0749 120.419 20.0682 120.396 20.0554C120.373 20.0426 120.354 20.0241 120.34 20.0016C120.242 19.8307 120.106 19.6855 119.941 19.5781C119.776 19.4706 119.588 19.404 119.393 19.3838C119.372 19.3833 119.352 19.3788 119.333 19.3704C119.314 19.3621 119.297 19.3501 119.283 19.3352C119.269 19.3202 119.257 19.3026 119.25 19.2834C119.242 19.2641 119.239 19.2436 119.239 19.2229C119.241 19.1809 119.26 19.1413 119.29 19.1126C119.321 19.0839 119.362 19.0684 119.404 19.0694C119.652 19.092 119.89 19.1734 120.1 19.307C120.31 19.4405 120.485 19.6223 120.61 19.8371C120.631 19.8728 120.637 19.915 120.628 19.9552C120.618 19.9953 120.594 20.0303 120.559 20.0528C120.533 20.0702 120.502 20.078 120.471 20.0747Z" fill="#263238"/>
<path d="M111.131 32.9138C111.131 32.9138 116.457 41.0078 118.483 46.7181C120.479 40.017 120.709 34.654 118.848 32.7529C118.249 33.5097 115.836 34.5333 111.131 32.9138Z" fill="#E0E0E0"/>
<path d="M109.314 38.8948L108.798 40.3571L108.287 41.8779C107.947 42.8906 107.636 43.9069 107.347 44.9049C107.201 45.4058 107.073 45.903 106.956 46.3929C106.839 46.8827 106.725 47.369 106.645 47.8333C106.565 48.2975 106.502 48.7472 106.462 49.1493C106.441 49.4573 106.441 49.7663 106.462 50.0743L106.272 49.5405C106.119 49.2517 105.961 49.1749 105.954 49.1749C105.947 49.1749 106.005 49.248 106.119 49.3285C106.459 49.5292 106.821 49.6911 107.197 49.811C108.169 50.1377 109.162 50.3991 110.169 50.5934C111.24 50.8054 112.344 50.959 113.459 51.1418C114.575 51.3246 115.722 51.4525 116.826 51.6097H116.878C117.263 51.6649 117.617 51.8548 117.876 52.1457C118.135 52.4366 118.282 52.8099 118.292 53.1992C118.302 53.5886 118.174 53.9689 117.931 54.2728C117.687 54.5768 117.344 54.7847 116.962 54.8597C115.771 55.0858 114.569 55.2518 113.361 55.3569C112.154 55.4666 110.937 55.5214 109.705 55.5141C108.406 55.5118 107.109 55.398 105.83 55.1741C105.078 55.0339 104.343 54.8171 103.636 54.527C103.165 54.3328 102.721 54.0798 102.313 53.7739C101.712 53.3301 101.224 52.7517 100.887 52.085C100.825 51.9608 100.775 51.8311 100.737 51.6974L100.697 51.5476C100.484 50.7517 100.367 49.933 100.35 49.1091C100.332 48.4221 100.358 47.7347 100.427 47.0509C100.543 45.8018 100.745 44.5621 101.03 43.3403C101.289 42.1485 101.618 40.9969 101.973 39.8599C102.156 39.2933 102.339 38.7303 102.543 38.1709C102.748 37.6116 102.953 37.0742 103.205 36.471C103.535 35.683 104.158 35.0542 104.943 34.7176C105.729 34.381 106.614 34.363 107.412 34.6673C108.21 34.9717 108.859 35.5746 109.221 36.3486C109.582 37.1225 109.629 38.0068 109.35 38.8144L109.314 38.8948Z" fill="#E0E0E0"/>
<path d="M117.346 52.0812L120.577 52.4833L118.793 56.6181C118.793 56.6181 115.843 55.8869 115.631 54.2637C115.61 54.0843 115.653 53.9031 115.752 53.7519L116.585 52.4395C116.665 52.3142 116.779 52.2141 116.914 52.1508C117.048 52.0874 117.198 52.0633 117.346 52.0812Z" fill="#FF8B7B"/>
<path d="M123.001 55.5433L122.131 56.8887C121.962 57.1472 121.707 57.3376 121.412 57.426C121.116 57.5143 120.798 57.4949 120.515 57.3712L118.793 56.6181L120.577 52.4834L122.592 53.73C122.739 53.821 122.867 53.9404 122.967 54.0813C123.068 54.2223 123.139 54.3818 123.177 54.5507C123.215 54.7195 123.219 54.8943 123.189 55.0647C123.159 55.2352 123.095 55.3979 123.001 55.5433Z" fill="#FF8B7B"/>
<path d="M111.39 31.6562C110.711 31.7641 110.089 32.0992 109.625 32.6068C111.072 34.5386 113.136 35.9185 115.474 36.5185C115.306 35.9591 115.81 34.325 116.366 33.7401C114.322 33.4366 111.39 31.6562 111.39 31.6562Z" fill="#FAFAFA"/>
<path d="M117.006 31.8574C117.699 31.9834 118.358 32.2537 118.94 32.6507C118.94 32.6507 120.987 34.9356 118.574 36.2261C118.738 35.6668 117.477 34.1752 116.348 33.7402C118.388 33.4367 117.006 31.8574 117.006 31.8574Z" fill="#FAFAFA"/>
<path d="M116.574 35.0416C114.958 34.1751 112.959 33.2356 113.514 34.7527C114.07 36.2699 113.335 36.7963 114.059 37.3118C114.783 37.8273 116.253 36.4125 116.739 36.2151C117.225 36.0177 116.574 35.0416 116.574 35.0416Z" fill="#8A1114"/>
<path d="M117.718 35.0307C118.951 34.2008 120.493 33.3015 120.219 34.7821C119.945 36.2627 120.625 36.7782 120.087 37.279C119.55 37.7799 118.168 36.3797 117.729 36.1823C117.291 35.9849 117.718 35.0307 117.718 35.0307Z" fill="#8A1114"/>
<path d="M116.355 34.9247C116.72 34.7054 117.612 34.4275 118.055 35.0234C118.497 35.6193 118.355 36.6173 117.744 36.738C117.526 36.7821 117.3 36.7663 117.09 36.6922C116.88 36.6182 116.694 36.4887 116.552 36.3176C116.688 36.0991 116.742 35.8399 116.706 35.5853C116.67 35.3307 116.546 35.0969 116.355 34.9247Z" fill="#8A1114"/>
<path d="M106.056 132.714L101.622 132.838L101.388 130.327L106.539 130.634L106.056 132.714Z" fill="black"/>
<path d="M126.522 132.707L121.733 132.838L121.202 130.663L126.551 130.144L126.522 132.707Z" fill="black"/>
<path d="M116.084 51.2296C113.845 50.5676 111.536 50.1688 109.204 50.0415C108.707 50.0708 108.517 61.3051 108.557 65.9004C108.557 66.5219 115.708 66.3976 117.536 66.1161C117.638 64.8329 117.66 55.4667 118.135 52.5384C118.172 52.3093 118.13 52.0747 118.017 51.8719C117.905 51.6692 117.727 51.51 117.514 51.4197C117.061 51.2371 116.569 51.1718 116.084 51.2296Z" fill="white"/>
<path d="M153.516 33.2466H133.219V33.8242H153.516V33.2466Z" fill="#8A1114"/>
<path d="M153.092 33.8242H133.643L134.389 34.23H152.35L153.092 33.8242Z" fill="#8A1114"/>
<path opacity="0.2" d="M153.092 33.8242H133.643L134.389 34.23H152.35L153.092 33.8242Z" fill="black"/>
<path d="M144.205 25.0867C144.206 25.2524 144.157 25.4147 144.066 25.5528C143.974 25.691 143.844 25.7988 143.691 25.8628C143.538 25.9267 143.369 25.9438 143.207 25.9119C143.044 25.88 142.894 25.8006 142.777 25.6836C142.66 25.5667 142.579 25.4175 142.547 25.255C142.514 25.0925 142.531 24.924 142.594 24.7708C142.657 24.6177 142.764 24.4867 142.902 24.3945C143.04 24.3024 143.202 24.2532 143.368 24.2532C143.477 24.2527 143.586 24.2739 143.688 24.3156C143.789 24.3573 143.882 24.4186 143.959 24.496C144.037 24.5735 144.099 24.6655 144.141 24.7669C144.183 24.8683 144.205 24.9769 144.205 25.0867Z" fill="#8A1114"/>
<path d="M152.142 30.5668C151.578 28.8212 150.506 27.2836 149.063 26.1506L149.29 25.8618C150.791 27.0406 151.906 28.6407 152.493 30.4572L152.142 30.5668Z" fill="#8A1114"/>
<path d="M147.795 25.3097C147.385 25.0835 146.959 24.8891 146.519 24.7284L146.643 24.3848C147.101 24.5568 147.544 24.7633 147.97 25.0026L147.795 25.3097Z" fill="#8A1114"/>
<path d="M143.368 25.0869C141.166 25.0869 139.054 25.9616 137.497 27.5186C135.94 29.0756 135.065 31.1873 135.065 33.3893H151.67C151.67 31.1873 150.795 29.0756 149.238 27.5186C147.681 25.9616 145.57 25.0869 143.368 25.0869Z" fill="#8A1114"/>
<path opacity="0.3" d="M136.21 32.647H138.356C138.43 32.6457 138.501 32.6188 138.558 32.5708C138.615 32.5228 138.653 32.4567 138.666 32.3837C139.098 30.1098 140.454 28.1284 142.611 26.4065C142.66 26.3672 142.695 26.313 142.71 26.2521C142.725 26.1913 142.721 26.1271 142.696 26.0692C142.672 26.0114 142.629 25.9631 142.575 25.9316C142.521 25.9001 142.458 25.8871 142.395 25.8947C140.764 26.11 139.247 26.8503 138.074 28.0038C136.901 29.1573 136.135 30.6614 135.892 32.2887C135.886 32.3337 135.89 32.3794 135.903 32.4228C135.917 32.4661 135.939 32.5061 135.969 32.5401C135.999 32.574 136.036 32.6011 136.078 32.6195C136.119 32.638 136.164 32.6473 136.21 32.647Z" fill="white"/>
<path d="M116.954 25.1087C117.125 25.1162 117.297 25.1076 117.466 25.0831C117.489 25.0787 117.509 25.0654 117.522 25.0463C117.535 25.0271 117.54 25.0035 117.536 24.9808C117.53 24.9569 117.515 24.9361 117.495 24.922C117.475 24.9079 117.45 24.9015 117.426 24.904C117.044 24.9608 116.654 24.9304 116.286 24.8152C115.917 24.6999 115.58 24.5028 115.298 24.2386C115.29 24.2299 115.28 24.2229 115.269 24.2182C115.258 24.2134 115.246 24.2109 115.234 24.2109C115.222 24.2109 115.211 24.2134 115.2 24.2182C115.189 24.2229 115.179 24.2299 115.17 24.2386C115.154 24.2561 115.146 24.2789 115.146 24.3026C115.146 24.3263 115.154 24.3491 115.17 24.3666C115.654 24.8243 116.289 25.0884 116.954 25.1087Z" fill="#263238"/>
<path d="M20.308 195L16.02 178.936L11.732 195H6.804L0.916 172.024H5.652L9.364 187.608L13.588 172.024H18.548L22.644 187.672L26.388 172.024H31.156L25.236 195H20.308ZM35.4335 186.2H45.6095L46.8895 190.072H34.0255L35.4335 186.2ZM46.6655 195L40.5215 177.336L34.2495 195H29.3535L37.9935 172.024H43.3055L51.8815 195H46.6655ZM59.5445 195H54.6805V172.024H59.5445V195ZM74.515 195H69.651V176.408H62.419V172.024H81.779V176.408H74.515V195ZM100.137 190.776V195H84.6805V172.024H99.9125V176.248H89.5445V181.08H98.9525V185.272H89.5445V190.776H100.137ZM108.763 195H103.899V172.024H112.891C115.793 172.024 118.043 172.675 119.643 173.976C121.243 175.256 122.043 177.091 122.043 179.48C122.043 181.016 121.585 182.381 120.667 183.576C119.771 184.749 118.502 185.603 116.859 186.136L122.779 195H116.987L111.803 186.872H108.763V195ZM108.763 176.056V182.872H112.667C114.139 182.872 115.259 182.595 116.027 182.04C116.795 181.464 117.179 180.611 117.179 179.48C117.179 178.328 116.795 177.475 116.027 176.92C115.259 176.344 114.139 176.056 112.667 176.056H108.763ZM128.75 186.84H140.142L140.622 188.152H127.918L128.75 186.84ZM142.574 195L134.286 173.656L125.966 195H124.43L133.486 172.024H135.182L144.174 195H142.574ZM155.076 186.2H149.444V195H147.876V172.024H155.076C156.548 172.024 157.849 172.301 158.98 172.856C160.132 173.411 161.028 174.211 161.668 175.256C162.329 176.301 162.66 177.581 162.66 179.096C162.66 180.611 162.329 181.901 161.668 182.968C161.028 184.035 160.132 184.845 158.98 185.4C157.849 185.933 156.548 186.2 155.076 186.2ZM155.044 173.368H149.444V184.888H155.044C156.878 184.888 158.35 184.387 159.46 183.384C160.569 182.381 161.124 180.963 161.124 179.128C161.124 177.272 160.569 175.853 159.46 174.872C158.35 173.869 156.878 173.368 155.044 173.368ZM173.732 186.2H168.1V195H166.532V172.024H173.732C175.204 172.024 176.505 172.301 177.636 172.856C178.788 173.411 179.684 174.211 180.324 175.256C180.985 176.301 181.316 177.581 181.316 179.096C181.316 180.611 180.985 181.901 180.324 182.968C179.684 184.035 178.788 184.845 177.636 185.4C176.505 185.933 175.204 186.2 173.732 186.2ZM173.7 173.368H168.1V184.888H173.7C175.534 184.888 177.006 184.387 178.116 183.384C179.225 182.381 179.78 180.963 179.78 179.128C179.78 177.272 179.225 175.853 178.116 174.872C177.006 173.869 175.534 173.368 173.7 173.368Z" fill="white"/>
<path opacity="0.9" d="M31.4238 226.24C30.5918 226.24 29.8185 226.091 29.1038 225.792C28.3998 225.483 27.7811 225.056 27.2478 224.512C26.7251 223.968 26.3145 223.333 26.0158 222.608C25.7278 221.872 25.5838 221.083 25.5838 220.24C25.5838 219.397 25.7278 218.613 26.0158 217.888C26.3145 217.163 26.7251 216.533 27.2478 216C27.7811 215.456 28.3998 215.035 29.1038 214.736C29.8185 214.427 30.5918 214.272 31.4238 214.272C32.2558 214.272 33.0238 214.427 33.7278 214.736C34.4425 215.035 35.0611 215.456 35.5838 216C36.1171 216.533 36.5278 217.163 36.8158 217.888C37.1145 218.613 37.2638 219.397 37.2638 220.24C37.2638 221.083 37.1145 221.872 36.8158 222.608C36.5278 223.333 36.1171 223.968 35.5838 224.512C35.0611 225.056 34.4425 225.483 33.7278 225.792C33.0238 226.091 32.2558 226.24 31.4238 226.24ZM31.4238 224.656C32.0318 224.656 32.5811 224.544 33.0718 224.32C33.5625 224.096 33.9838 223.781 34.3358 223.376C34.6985 222.971 34.9705 222.501 35.1518 221.968C35.3438 221.424 35.4398 220.848 35.4398 220.24C35.4398 219.632 35.3438 219.061 35.1518 218.528C34.9705 217.995 34.6985 217.531 34.3358 217.136C33.9838 216.731 33.5625 216.416 33.0718 216.192C32.5811 215.968 32.0318 215.856 31.4238 215.856C30.8158 215.856 30.2665 215.968 29.7758 216.192C29.2851 216.416 28.8585 216.731 28.4958 217.136C28.1438 217.531 27.8718 217.995 27.6798 218.528C27.4985 219.061 27.4078 219.632 27.4078 220.24C27.4078 220.848 27.4985 221.424 27.6798 221.968C27.8718 222.501 28.1438 222.971 28.4958 223.376C28.8585 223.781 29.2851 224.096 29.7758 224.32C30.2665 224.544 30.8158 224.656 31.4238 224.656ZM44.1877 221.728H49.5317L50.0117 223.152H43.5957L44.1877 221.728ZM50.3317 226L46.8277 216.432L43.2757 226H41.4997L45.8997 214.512H47.8357L52.2037 226H50.3317ZM61.7551 221.76C61.7551 222.613 61.6004 223.371 61.2911 224.032C60.9817 224.693 60.5444 225.216 59.9791 225.6C59.4244 225.973 58.7684 226.16 58.0111 226.16C57.4351 226.16 56.9124 226.021 56.4431 225.744C55.9737 225.467 55.5844 225.072 55.2751 224.56V229.088H53.6591V217.52H55.1631V219.072C55.4617 218.528 55.8617 218.107 56.3631 217.808C56.8644 217.509 57.4137 217.36 58.0111 217.36C58.7684 217.36 59.4244 217.552 59.9791 217.936C60.5444 218.309 60.9817 218.827 61.2911 219.488C61.6004 220.149 61.7551 220.907 61.7551 221.76ZM60.0751 221.76C60.0751 220.811 59.8457 220.08 59.3871 219.568C58.9391 219.045 58.3684 218.784 57.6751 218.784C57.2271 218.784 56.8217 218.901 56.4591 219.136C56.0964 219.371 55.8084 219.707 55.5951 220.144C55.3817 220.581 55.2751 221.12 55.2751 221.76C55.2751 222.379 55.3817 222.912 55.5951 223.36C55.8084 223.797 56.0964 224.133 56.4591 224.368C56.8217 224.603 57.2271 224.72 57.6751 224.72C58.3684 224.72 58.9391 224.464 59.3871 223.952C59.8457 223.44 60.0751 222.709 60.0751 221.76ZM71.4894 221.76C71.4894 222.613 71.3348 223.371 71.0254 224.032C70.7161 224.693 70.2788 225.216 69.7134 225.6C69.1588 225.973 68.5028 226.16 67.7454 226.16C67.1694 226.16 66.6468 226.021 66.1774 225.744C65.7081 225.467 65.3188 225.072 65.0094 224.56V229.088H63.3934V217.52H64.8974V219.072C65.1961 218.528 65.5961 218.107 66.0974 217.808C66.5988 217.509 67.1481 217.36 67.7454 217.36C68.5028 217.36 69.1588 217.552 69.7134 217.936C70.2788 218.309 70.7161 218.827 71.0254 219.488C71.3348 220.149 71.4894 220.907 71.4894 221.76ZM69.8094 221.76C69.8094 220.811 69.5801 220.08 69.1214 219.568C68.6734 219.045 68.1028 218.784 67.4094 218.784C66.9614 218.784 66.5561 218.901 66.1934 219.136C65.8308 219.371 65.5428 219.707 65.3294 220.144C65.1161 220.581 65.0094 221.12 65.0094 221.76C65.0094 222.379 65.1161 222.912 65.3294 223.36C65.5428 223.797 65.8308 224.133 66.1934 224.368C66.5561 224.603 66.9614 224.72 67.4094 224.72C68.1028 224.72 68.6734 224.464 69.1214 223.952C69.5801 223.44 69.8094 222.709 69.8094 221.76ZM75.8636 221.76C75.8636 220.907 76.0182 220.149 76.3276 219.488C76.6369 218.816 77.0742 218.293 77.6396 217.92C78.2049 217.547 78.8662 217.36 79.6236 217.36C80.1889 217.36 80.7062 217.504 81.1756 217.792C81.6556 218.069 82.0449 218.464 82.3436 218.976V214.512H83.9596V226H82.4556V224.48C82.1569 225.013 81.7569 225.429 81.2556 225.728C80.7649 226.016 80.2209 226.16 79.6236 226.16C78.8662 226.16 78.2049 225.973 77.6396 225.6C77.0742 225.216 76.6369 224.693 76.3276 224.032C76.0182 223.36 75.8636 222.603 75.8636 221.76ZM77.5436 221.76C77.5436 222.709 77.7676 223.44 78.2156 223.952C78.6636 224.464 79.2396 224.72 79.9436 224.72C80.4129 224.72 80.8236 224.603 81.1756 224.368C81.5382 224.123 81.8209 223.776 82.0236 223.328C82.2369 222.88 82.3436 222.347 82.3436 221.728C82.3436 221.099 82.2369 220.565 82.0236 220.128C81.8102 219.691 81.5222 219.36 81.1596 219.136C80.7969 218.901 80.3916 218.784 79.9436 218.784C79.2396 218.784 78.6636 219.04 78.2156 219.552C77.7676 220.064 77.5436 220.8 77.5436 221.76ZM89.7579 226.16C89.1606 226.16 88.6059 226.053 88.0939 225.84C87.5926 225.616 87.1553 225.307 86.7819 224.912C86.4086 224.507 86.1153 224.037 85.9019 223.504C85.6993 222.971 85.5979 222.389 85.5979 221.76C85.5979 221.131 85.6993 220.549 85.9019 220.016C86.1153 219.483 86.4086 219.019 86.7819 218.624C87.1553 218.219 87.5926 217.909 88.0939 217.696C88.6059 217.472 89.1606 217.36 89.7579 217.36C90.3659 217.36 90.9206 217.472 91.4219 217.696C91.9339 217.909 92.3713 218.219 92.7339 218.624C93.1073 219.019 93.3953 219.483 93.5979 220.016C93.8113 220.549 93.9179 221.131 93.9179 221.76C93.9179 222.389 93.8113 222.971 93.5979 223.504C93.3953 224.037 93.1073 224.507 92.7339 224.912C92.3713 225.307 91.9339 225.616 91.4219 225.84C90.9206 226.053 90.3659 226.16 89.7579 226.16ZM89.7579 224.736C90.2273 224.736 90.6486 224.619 91.0219 224.384C91.4059 224.139 91.7046 223.792 91.9179 223.344C92.1419 222.896 92.2539 222.368 92.2539 221.76C92.2539 221.141 92.1419 220.613 91.9179 220.176C91.7046 219.728 91.4059 219.387 91.0219 219.152C90.6486 218.917 90.2273 218.8 89.7579 218.8C89.2993 218.8 88.8779 218.917 88.4939 219.152C88.1206 219.387 87.8219 219.728 87.5979 220.176C87.3846 220.613 87.2779 221.141 87.2779 221.76C87.2779 222.368 87.3846 222.896 87.5979 223.344C87.8219 223.792 88.1206 224.139 88.4939 224.384C88.8779 224.619 89.2993 224.736 89.7579 224.736ZM104.237 226.24C103.405 226.24 102.632 226.091 101.917 225.792C101.213 225.493 100.594 225.077 100.061 224.544C99.5277 224.011 99.1117 223.381 98.8131 222.656C98.5144 221.92 98.3651 221.115 98.3651 220.24C98.3651 219.387 98.5091 218.603 98.7971 217.888C99.0851 217.163 99.4851 216.528 99.9971 215.984C100.52 215.44 101.133 215.019 101.837 214.72C102.541 214.421 103.309 214.272 104.141 214.272C105.133 214.272 106.008 214.459 106.765 214.832C107.533 215.195 108.173 215.691 108.685 216.32C109.197 216.949 109.57 217.664 109.805 218.464H107.757C107.618 217.973 107.384 217.531 107.053 217.136C106.733 216.741 106.322 216.432 105.821 216.208C105.33 215.973 104.754 215.856 104.093 215.856C103.336 215.856 102.658 216.037 102.061 216.4C101.474 216.763 101.016 217.275 100.685 217.936C100.354 218.587 100.189 219.365 100.189 220.272C100.189 221.115 100.354 221.872 100.685 222.544C101.016 223.216 101.485 223.749 102.093 224.144C102.712 224.539 103.448 224.736 104.301 224.736C105.005 224.736 105.618 224.603 106.141 224.336C106.674 224.059 107.106 223.675 107.437 223.184C107.768 222.683 107.986 222.107 108.093 221.456H104.125V220.048H109.949C109.97 220.965 109.848 221.803 109.581 222.56C109.314 223.317 108.93 223.973 108.429 224.528C107.928 225.083 107.32 225.509 106.605 225.808C105.901 226.096 105.112 226.24 104.237 226.24ZM116.795 226V224.688C116.528 225.157 116.166 225.52 115.707 225.776C115.248 226.032 114.704 226.16 114.075 226.16C113.2 226.16 112.496 225.931 111.963 225.472C111.43 225.003 111.163 224.379 111.163 223.6C111.163 222.768 111.488 222.139 112.139 221.712C112.8 221.285 113.76 221.072 115.019 221.072C115.264 221.072 115.504 221.077 115.739 221.088C115.974 221.099 116.262 221.125 116.603 221.168V220.544C116.603 219.947 116.448 219.483 116.139 219.152C115.83 218.811 115.392 218.64 114.827 218.64C114.24 218.64 113.771 218.811 113.419 219.152C113.078 219.483 112.896 219.941 112.875 220.528H111.403C111.424 219.888 111.579 219.333 111.867 218.864C112.166 218.384 112.566 218.016 113.067 217.76C113.579 217.493 114.166 217.36 114.827 217.36C115.872 217.36 116.683 217.643 117.259 218.208C117.846 218.763 118.139 219.547 118.139 220.56V226H116.795ZM112.699 223.552C112.699 223.989 112.854 224.341 113.163 224.608C113.472 224.875 113.883 225.008 114.395 225.008C115.078 225.008 115.616 224.816 116.011 224.432C116.406 224.037 116.603 223.515 116.603 222.864V222.176C116.294 222.144 116.022 222.123 115.787 222.112C115.552 222.091 115.328 222.08 115.115 222.08C114.304 222.08 113.696 222.203 113.291 222.448C112.896 222.683 112.699 223.051 112.699 223.552ZM121.916 221.664V226H120.3V217.52H121.804V219.312C122.102 218.725 122.545 218.261 123.132 217.92C123.729 217.579 124.374 217.408 125.068 217.408V219.088C124.46 219.056 123.916 219.125 123.436 219.296C122.966 219.467 122.593 219.749 122.316 220.144C122.049 220.528 121.916 221.035 121.916 221.664ZM129.659 226.176C128.881 226.176 128.193 225.989 127.595 225.616C127.009 225.243 126.545 224.725 126.203 224.064C125.873 223.392 125.707 222.624 125.707 221.76C125.707 220.907 125.878 220.149 126.219 219.488C126.561 218.827 127.03 218.309 127.627 217.936C128.225 217.552 128.902 217.36 129.659 217.36C130.363 217.36 130.987 217.509 131.531 217.808C132.086 218.096 132.539 218.512 132.891 219.056C133.254 219.589 133.483 220.224 133.579 220.96H131.883C131.798 220.277 131.558 219.744 131.163 219.36C130.769 218.976 130.273 218.784 129.675 218.784C129.206 218.784 128.801 218.912 128.459 219.168C128.118 219.413 127.851 219.755 127.659 220.192C127.467 220.629 127.371 221.152 127.371 221.76C127.371 222.357 127.467 222.88 127.659 223.328C127.851 223.776 128.118 224.123 128.459 224.368C128.801 224.613 129.206 224.736 129.675 224.736C130.283 224.736 130.779 224.544 131.163 224.16C131.558 223.776 131.803 223.243 131.899 222.56H133.579C133.494 223.307 133.275 223.952 132.923 224.496C132.571 225.029 132.118 225.445 131.563 225.744C131.009 226.032 130.374 226.176 129.659 226.176ZM131.355 227.856C131.355 228.251 131.19 228.565 130.859 228.8C130.529 229.045 130.102 229.168 129.579 229.168C129.057 229.168 128.625 229.045 128.283 228.8C127.942 228.555 127.739 228.197 127.675 227.728H128.731C128.763 227.941 128.849 228.101 128.987 228.208C129.137 228.315 129.318 228.368 129.531 228.368C129.734 228.368 129.894 228.309 130.011 228.192C130.139 228.075 130.203 227.936 130.203 227.776C130.203 227.573 130.145 227.413 130.027 227.296C129.91 227.179 129.75 227.099 129.547 227.056C129.345 227.013 129.121 227.008 128.875 227.04L129.243 225.792H130.107L129.867 226.56C130.305 226.603 130.662 226.741 130.939 226.976C131.217 227.211 131.355 227.504 131.355 227.856ZM138.68 226.16C138.082 226.16 137.528 226.053 137.016 225.84C136.514 225.616 136.077 225.307 135.704 224.912C135.33 224.507 135.037 224.037 134.824 223.504C134.621 222.971 134.52 222.389 134.52 221.76C134.52 221.131 134.621 220.549 134.824 220.016C135.037 219.483 135.33 219.019 135.704 218.624C136.077 218.219 136.514 217.909 137.016 217.696C137.528 217.472 138.082 217.36 138.68 217.36C139.288 217.36 139.842 217.472 140.344 217.696C140.856 217.909 141.293 218.219 141.656 218.624C142.029 219.019 142.317 219.483 142.52 220.016C142.733 220.549 142.84 221.131 142.84 221.76C142.84 222.389 142.733 222.971 142.52 223.504C142.317 224.037 142.029 224.507 141.656 224.912C141.293 225.307 140.856 225.616 140.344 225.84C139.842 226.053 139.288 226.16 138.68 226.16ZM138.68 224.736C139.149 224.736 139.57 224.619 139.944 224.384C140.328 224.139 140.626 223.792 140.84 223.344C141.064 222.896 141.176 222.368 141.176 221.76C141.176 221.141 141.064 220.613 140.84 220.176C140.626 219.728 140.328 219.387 139.944 219.152C139.57 218.917 139.149 218.8 138.68 218.8C138.221 218.8 137.8 218.917 137.416 219.152C137.042 219.387 136.744 219.728 136.52 220.176C136.306 220.613 136.2 221.141 136.2 221.76C136.2 222.368 136.306 222.896 136.52 223.344C136.744 223.792 137.042 224.139 137.416 224.384C137.8 224.619 138.221 224.736 138.68 224.736ZM146.103 226H144.487V217.52H145.991V218.928C146.279 218.437 146.647 218.053 147.095 217.776C147.543 217.499 148.061 217.36 148.647 217.36C149.266 217.36 149.799 217.515 150.247 217.824C150.706 218.123 151.031 218.555 151.223 219.12C151.522 218.576 151.911 218.149 152.391 217.84C152.871 217.52 153.437 217.36 154.087 217.36C154.962 217.36 155.655 217.637 156.167 218.192C156.69 218.736 156.951 219.509 156.951 220.512V226H155.335V221.024C155.335 220.309 155.181 219.76 154.871 219.376C154.562 218.981 154.114 218.784 153.527 218.784C153.165 218.784 152.829 218.885 152.519 219.088C152.221 219.28 151.981 219.552 151.799 219.904C151.618 220.256 151.527 220.667 151.527 221.136V226H149.911V221.024C149.911 220.309 149.757 219.76 149.447 219.376C149.149 218.981 148.701 218.784 148.103 218.784C147.73 218.784 147.389 218.885 147.079 219.088C146.781 219.28 146.541 219.552 146.359 219.904C146.189 220.256 146.103 220.667 146.103 221.136V226Z" fill="white"/>
</svg>
