<svg width="24" height="26" viewBox="0 0 24 26" fill="none" xmlns="http://www.w3.org/2000/svg">
<path d="M17.3333 9H6.66665M17.3333 12.9998H6.66665M13.3333 17H6.66665M21.932 24.1947L20.612 24.858C20.238 25.046 19.7975 25.0474 19.4223 24.8619L17.3256 23.8251L15.2711 24.8572C14.896 25.0456 14.4541 25.0464 14.0784 24.8593L12 23.8247L9.92163 24.8593C9.54587 25.0464 9.10396 25.0456 8.72889 24.8572L6.67435 23.8251L4.57771 24.8619C4.20253 25.0474 3.76199 25.046 3.38801 24.858L2.06801 24.1947C1.6176 23.9683 1.33332 23.5074 1.33331 23.0033V2.99669C1.33332 2.49263 1.61758 2.03165 2.06798 1.80533L3.38798 1.14197C3.76197 0.954032 4.2025 0.952615 4.57769 1.13814L6.67433 2.17493L8.72886 1.14284C9.10394 0.954413 9.54585 0.953612 9.92161 1.14068L12 2.17534L14.0783 1.14068C14.4541 0.953612 14.896 0.954413 15.2711 1.14284L17.3256 2.17493L19.4222 1.13814C19.7974 0.952615 20.238 0.954032 20.612 1.14197L21.932 1.80533C22.3824 2.03165 22.6666 2.49262 22.6666 2.99669V23.0034C22.6666 23.5074 22.3824 23.9683 21.932 24.1947Z" stroke="#333333" stroke-width="2" stroke-linecap="round" stroke-linejoin="round"/>
</svg>
